<svg xmlns="http://www.w3.org/2000/svg" viewBox="0 0 64 64" width="64px" height="64px"><g id="_x32_0_Directory_Office_Folder_File_Paper"><path fill="#faefde" d="M57,55H6c-1.7,0-3-1.3-3-3V14c0-1.7,1.3-3,3-3h15l9,6h24c1.7,0,3,1.3,3,3V55z"/><path fill="#fff7f0" d="M6,11h16l7,7H3v-4C3,12.3,4.3,11,6,11z"/><path fill="#cda1a7" d="M60,55h-3V21h4c1.1,0,2,0.9,2,2v29C63,53.7,61.7,55,60,55z"/><path fill="#efd8be" d="M57,55H6c-1.7,0-3-1.3-3-3v-7h54V55z"/><path fill="#f75f83" d="M31 24h-6c-.6 0-1 .4-1 1s.4 1 1 1h6c.6 0 1-.4 1-1S31.6 24 31 24zM11 26h10c.6 0 1-.4 1-1s-.4-1-1-1H11c-.6 0-1 .4-1 1S10.4 26 11 26zM15 28h-4c-.6 0-1 .4-1 1s.4 1 1 1h4c.6 0 1-.4 1-1S15.6 28 15 28zM26 28h-7c-.6 0-1 .4-1 1s.4 1 1 1h7c.6 0 1-.4 1-1S26.6 28 26 28z"/><path fill="#8d6c9f" d="M53,44h-4c-0.6,0-1,0.4-1,1s0.4,1,1,1h4c0.6,0,1-0.4,1-1S53.6,44,53,44z"/><path fill="#8d6c9f" d="M61,20h-3v-1c0-1.7-1.3-3-3-3H29.7c-0.8,0-1.5-0.3-2.1-0.9l-3.7-3.7c-0.9-0.9-2.2-1.4-3.5-1.4H5 c-1.7,0-3,1.3-3,3v39c0,2.2,1.8,4,4,4h53h1c2.2,0,4-1.8,4-4V23C64,21.3,62.7,20,61,20z M6,54c-1.1,0-2-0.9-2-2v-6h41 c0.6,0,1-0.4,1-1s-0.4-1-1-1H4V13c0-0.6,0.4-1,1-1h15.4c0.8,0,1.5,0.3,2.1,0.9l3.7,3.7c0.9,0.9,2.2,1.4,3.5,1.4H55 c0.6,0,1,0.4,1,1v33c0,0.6,0.2,1.3,0.6,2H6z M62,52c0,1.1-0.9,2-2,2c-1.2,0-2-1.4-2-2V22h3c0.6,0,1,0.4,1,1V52z"/><path fill="#8d6c9f" d="M7 48c-.6 0-1 .4-1 1v2c0 .6.4 1 1 1s1-.4 1-1v-2C8 48.4 7.6 48 7 48zM12 48c-.6 0-1 .4-1 1v2c0 .6.4 1 1 1s1-.4 1-1v-2C13 48.4 12.6 48 12 48zM17 48c-.6 0-1 .4-1 1v2c0 .6.4 1 1 1s1-.4 1-1v-2C18 48.4 17.6 48 17 48zM22 48c-.6 0-1 .4-1 1v2c0 .6.4 1 1 1s1-.4 1-1v-2C23 48.4 22.6 48 22 48zM27 48c-.6 0-1 .4-1 1v2c0 .6.4 1 1 1s1-.4 1-1v-2C28 48.4 27.6 48 27 48zM32 48c-.6 0-1 .4-1 1v2c0 .6.4 1 1 1s1-.4 1-1v-2C33 48.4 32.6 48 32 48zM37 48c-.6 0-1 .4-1 1v2c0 .6.4 1 1 1s1-.4 1-1v-2C38 48.4 37.6 48 37 48zM42 48c-.6 0-1 .4-1 1v2c0 .6.4 1 1 1s1-.4 1-1v-2C43 48.4 42.6 48 42 48zM47 48c-.6 0-1 .4-1 1v2c0 .6.4 1 1 1s1-.4 1-1v-2C48 48.4 47.6 48 47 48zM52 48c-.6 0-1 .4-1 1v2c0 .6.4 1 1 1s1-.4 1-1v-2C53 48.4 52.6 48 52 48z"/></g></svg>