<svg xmlns="http://www.w3.org/2000/svg" viewBox="0 0 64 64" width="64px" height="64px"><path fill="#ed7899" d="M61,59.38a1,1,0,0,1-1,1H4a1,1,0,0,1-1-1v-8A9.37,9.37,0,0,1,8.3,43l14.07-6.73c2.55,3.21,5.91,5.5,9.63,5.5s7.08-2.29,9.63-5.5L55.7,43A9.37,9.37,0,0,1,61,51.41Z"/><path fill="#f98cb3" d="M18.22,41.06,32,49l13.78-7.94a4,4,0,0,0,1.85-1.92l-6-2.87c-2.55,3.21-5.91,5.5-9.63,5.5s-7.08-2.29-9.63-5.5l-6,2.87A4,4,0,0,0,18.22,41.06Z"/><path fill="#e0678f" d="M57,56H7a4,4,0,0,0-4,4H3a1,1,0,0,0,1,1H60a1,1,0,0,0,1-1h0A4,4,0,0,0,57,56Z"/><path fill="#faefde" d="M19.07,28.13h0c-.31,0-1.31-.82-1.83-2.77s-.05-3.27.19-3.33c0,0,1.9-.33,1.92-.71a12.86,12.86,0,0,1,.18-1.63,6.09,6.09,0,0,0-.08-1.73,22.42,22.42,0,0,1-.13-5.44c.34-3.38,2.32-5.39,5.31-5.39a1.06,1.06,0,0,0,.63-.21A12.77,12.77,0,0,1,32,5h1.06c6.42,0,11,3.28,12.95,9.07-.73-.08-.49.43-1,.93s-1.78.7-1.3,2a12.8,12.8,0,0,1,1,4.31c0,.38,1.9-.29,1.92-.29.26.09.72,2.37.19,4.33a11.91,11.91,0,0,1-2.45,4s-2.2,3.89-2.73,4.76c-2.33,3.83-5.76,6.8-9.58,6.8-5.47,0-10.14-6.06-11.92-12.05A1.06,1.06,0,0,0,19.07,28.13Z"/><path fill="#f9e3ae" d="M19.35,21.31s-.84-2.48.17-2.71a8.83,8.83,0,0,0,6.31-5.68c3.45,1.15,2.35,3.81,16.54,3.1.6,0,2,3.58,2.69,3.54.17,0,4.72,3.4-.75,9.81-1.28,1.5-2.75,4-2.56,5.63.36,3.07,5.75,4.15,5.88,4.14.43,0,8.43-3.45,8.31-3.7-4.08-8.49-7.47-19.29-7.1-19.64.64-.61-.89-2.46,0-2.36C46.52,6.33,40.84,2.07,33,2.07L31,1C24,1,16.55,7.13,16.13,11.26c-.3,3-5.32,17.91-5.13,19.36,0,0-3,2.75-2.06,5.38,4.34,3.13,11.25,2.32,14.06,0,.58-.48-3.75-7-5.44-8.37-.92-.75-.71-5.38-.06-6.12C18.87,19.93,19.35,21.31,19.35,21.31Z"/><path fill="#8d6c9f" d="M47 54a1 1 0 0 0-1 1v2a1 1 0 0 0 2 0V55A1 1 0 0 0 47 54zM52 54a1 1 0 0 0-1 1v2a1 1 0 0 0 2 0V55A1 1 0 0 0 52 54zM56 55v2a1 1 0 0 0 2 0V55a1 1 0 0 0-2 0zM42 54a1 1 0 0 0-1 1v2a1 1 0 0 0 2 0V55A1 1 0 0 0 42 54zM37 54a1 1 0 0 0-1 1v2a1 1 0 0 0 2 0V55A1 1 0 0 0 37 54zM32 52a1 1 0 0 0-1 1v4a1 1 0 0 0 2 0V53A1 1 0 0 0 32 52zM27 54a1 1 0 0 0-1 1v2a1 1 0 0 0 2 0V55A1 1 0 0 0 27 54zM22 54a1 1 0 0 0-1 1v2a1 1 0 0 0 2 0V55A1 1 0 0 0 22 54zM17 54a1 1 0 0 0-1 1v2a1 1 0 0 0 2 0V55A1 1 0 0 0 17 54zM12 54a1 1 0 0 0-1 1v2a1 1 0 0 0 2 0V55A1 1 0 0 0 12 54zM7 54a1 1 0 0 0-1 1v2a1 1 0 0 0 2 0V55A1 1 0 0 0 7 54zM23.36 16.83a1 1 0 0 0 1.39-.29l1.6-2.43 1.56.76A21.1 21.1 0 0 0 37.11 17h2.55a1 1 0 0 0 0-2H37.11a19.1 19.1 0 0 1-8.32-1.92l-1.56-.76a2 2 0 0 0-2.55.7l-1.6 2.43A1 1 0 0 0 23.36 16.83z"/><path fill="#8d6c9f" d="M55.75,41.38,50.81,39a43.38,43.38,0,0,0,4.39-1.49,3,3,0,0,0,1.37-4.42l-1.86-2.85a18.94,18.94,0,0,1-2.62-6.15L49.82,14.2A17,17,0,0,0,34.23,1a6.1,6.1,0,0,0-3.41-1A16.9,16.9,0,0,0,14.23,13.3l-2.45,11A18.93,18.93,0,0,1,9.1,30.59L7.44,33.11A3,3,0,0,0,8.8,37.54,43,43,0,0,0,13.15,39L8.25,41.38A11.05,11.05,0,0,0,2,51.3V59a3,3,0,0,0,3,3H59a3,3,0,0,0,3-3V51.3A11.05,11.05,0,0,0,55.75,41.38ZM9.57,35.69A1,1,0,0,1,9,35.05a1,1,0,0,1,.12-.84l1.66-2.52a20.92,20.92,0,0,0,3-7l2.45-11A14.91,14.91,0,0,1,30.82,2a4.13,4.13,0,0,1,2.47.83,1,1,0,0,0,.56.2,15,15,0,0,1,14,11.62l2.27,9.91A20.92,20.92,0,0,0,53,31.35L54.9,34.2A1,1,0,0,1,55,35a1,1,0,0,1-.58.63,46.52,46.52,0,0,1-6.41,2L42.48,35A23.13,23.13,0,0,0,45,29.73c1.23-.46,2.35-2,2.88-4a7.49,7.49,0,0,0,.18-3.34,2.67,2.67,0,0,0-1.78-2.26,2,2,0,0,0-.44-.07,14,14,0,0,0-.53-2.36,1,1,0,1,0-1.91.61A12,12,0,0,1,44,21.43a1,1,0,0,0,1.54.79.74.74,0,0,1,.27-.12c.05,0,.24.22.34.73A5.56,5.56,0,0,1,46,25.26c-.49,1.84-1.44,2.62-1.73,2.62h0a1,1,0,0,0-1,.71C41.59,34.26,37.18,40,32,40s-9.59-5.74-11.27-11.4a1,1,0,0,0-1-.71h0c-.29,0-1.24-.78-1.73-2.62a5.56,5.56,0,0,1-.15-2.42c.1-.51.29-.72.33-.73h0a.62.62,0,0,1,.27.12A1,1,0,0,0,20,21.43a12,12,0,0,1,.55-3.06,1,1,0,0,0-1.91-.6,14,14,0,0,0-.52,2.34,1.91,1.91,0,0,0-.44.07,2.67,2.67,0,0,0-1.78,2.26,7.49,7.49,0,0,0,.18,3.34c.54,2,1.66,3.5,2.88,4A23.13,23.13,0,0,0,21.52,35l-5.61,2.68A45.53,45.53,0,0,1,9.57,35.69ZM60,59a1,1,0,0,1-1,1H5a1,1,0,0,1-1-1V51.3a9,9,0,0,1,5.12-8.12l13.58-6.5C25.16,39.79,28.4,42,32,42s6.84-2.21,9.3-5.31l13.58,6.5h0A9,9,0,0,1,60,51.3Z"/><path fill="#8d6c9f" d="M21.49,43.86l10,6a1,1,0,0,0,1,0l10-6a1,1,0,1,0-1-1.71L32,47.83l-9.49-5.69a1,1,0,1,0-1,1.71Z"/></svg>